<svg width="48" height="48" viewBox="0 0 48 48" fill="none" xmlns="http://www.w3.org/2000/svg">
<path d="M34 38V20.622L35.998 19.468C36.6073 19.1172 37.1132 18.6118 37.4648 18.0029C37.8163 17.394 38.0009 16.7031 38 16V14C38 12.9391 37.5786 11.9217 36.8284 11.1716C36.0783 10.4214 35.0609 10 34 10H14C12.9391 10 11.9217 10.4214 11.1716 11.1716C10.4214 11.9217 10 12.9391 10 14V16C10 17.446 10.772 18.754 12.002 19.468L14 20.62V38H34ZM38 38C38 39.0609 37.5786 40.0783 36.8284 40.8284C36.0783 41.5786 35.0609 42 34 42H14C12.9391 42 11.9217 41.5786 11.1716 40.8284C10.4214 40.0783 10 39.0609 10 38V22.93C8.78331 22.228 7.77301 21.2179 7.07081 20.0013C6.36861 18.7848 5.99928 17.4047 6 16V14C6 11.8783 6.84286 9.84344 8.34315 8.34315C9.84344 6.84285 11.8783 6 14 6H34C36.1217 6 38.1566 6.84285 39.6569 8.34315C41.1571 9.84344 42 11.8783 42 14V16C42 18.96 40.392 21.546 38 22.93V38Z" fill="#0153FF"/>
</svg>
