<svg width="48" height="48" viewBox="0 0 48 48" fill="none" xmlns="http://www.w3.org/2000/svg">
<path d="M11.6667 42C10.6583 42 9.79483 41.638 9.07617 40.9141C8.35872 40.1889 8 39.3175 8 38.3V12.4C8 11.3825 8.35872 10.5118 9.07617 9.7878C9.79483 9.0626 10.6583 8.7 11.6667 8.7H13.5V5H17.1667V8.7H31.8333V5H35.5V8.7H37.3333C38.3417 8.7 39.2052 9.0626 39.9238 9.7878C40.6413 10.5118 41 11.3825 41 12.4V38.3C41 39.3175 40.6413 40.1889 39.9238 40.9141C39.2052 41.638 38.3417 42 37.3333 42H11.6667ZM11.6667 38.3H37.3333V19.8H11.6667V38.3ZM11.6667 16.1H37.3333V12.4H11.6667V16.1Z" fill="#0153FF"/>
</svg>
