<svg width="48" height="48" viewBox="0 0 48 48" fill="none" xmlns="http://www.w3.org/2000/svg">
<path d="M22.4167 37.5L25.6667 28.8333L15.089 24.5L21.589 16.9167L28.089 22.3333H35.6723M27.8333 13.6667C28.9826 13.6667 30.0848 13.2101 30.8975 12.3975C31.7101 11.5848 32.1667 10.4826 32.1667 9.33333C32.1667 8.18406 31.7101 7.08186 30.8975 6.2692C30.0848 5.45655 28.9826 5 27.8333 5C26.6841 5 25.5819 5.45655 24.7692 6.2692C23.9565 7.08186 23.5 8.18406 23.5 9.33333C23.5 10.4826 23.9565 11.5848 24.7692 12.3975C25.5819 13.2101 26.6841 13.6667 27.8333 13.6667ZM36.5 44C38.2239 44 39.8772 43.3152 41.0962 42.0962C42.3152 40.8772 43 39.2239 43 37.5C43 35.7761 42.3152 34.1228 41.0962 32.9038C39.8772 31.6848 38.2239 31 36.5 31C34.7761 31 33.1228 31.6848 31.9038 32.9038C30.6848 34.1228 30 35.7761 30 37.5C30 39.2239 30.6848 40.8772 31.9038 42.0962C33.1228 43.3152 34.7761 44 36.5 44ZM10.5 44C12.2239 44 13.8772 43.3152 15.0962 42.0962C16.3152 40.8772 17 39.2239 17 37.5C17 35.7761 16.3152 34.1228 15.0962 32.9038C13.8772 31.6848 12.2239 31 10.5 31C8.77609 31 7.12279 31.6848 5.90381 32.9038C4.68482 34.1228 4 35.7761 4 37.5C4 39.2239 4.68482 40.8772 5.90381 42.0962C7.12279 43.3152 8.77609 44 10.5 44Z" stroke="#0153FF" stroke-width="4" stroke-linecap="round" stroke-linejoin="round"/>
</svg>
