<svg width="24" height="24" viewBox="0 0 24 24" fill="none" xmlns="http://www.w3.org/2000/svg">
<path d="M12.0001 22.0246C11.7334 22.0246 11.4794 21.9746 11.2381 21.8746C10.9961 21.7746 10.7751 21.6329 10.5751 21.4496L2.5501 13.4246C2.36676 13.2246 2.2251 13.0036 2.1251 12.7616C2.0251 12.5203 1.9751 12.2663 1.9751 11.9996C1.9751 11.7329 2.0251 11.4746 2.1251 11.2246C2.2251 10.9746 2.36676 10.7579 2.5501 10.5746L10.5751 2.54961C10.7751 2.34961 10.9961 2.20361 11.2381 2.11161C11.4794 2.02028 11.7334 1.97461 12.0001 1.97461C12.2668 1.97461 12.5251 2.02028 12.7751 2.11161C13.0251 2.20361 13.2418 2.34961 13.4251 2.54961L21.4501 10.5746C21.6501 10.7579 21.7961 10.9746 21.8881 11.2246C21.9794 11.4746 22.0251 11.7329 22.0251 11.9996C22.0251 12.2663 21.9794 12.5203 21.8881 12.7616C21.7961 13.0036 21.6501 13.2246 21.4501 13.4246L13.4251 21.4496C13.2418 21.6329 13.0251 21.7746 12.7751 21.8746C12.5251 21.9746 12.2668 22.0246 12.0001 22.0246ZM12.0001 20.0246L20.0251 11.9996L12.0001 3.97461L3.9751 11.9996L12.0001 20.0246ZM11.0001 12.9996H13.0001V6.99961H11.0001V12.9996ZM12.0001 15.9996C12.2834 15.9996 12.5211 15.9036 12.7131 15.7116C12.9044 15.5203 13.0001 15.2829 13.0001 14.9996C13.0001 14.7163 12.9044 14.4786 12.7131 14.2866C12.5211 14.0953 12.2834 13.9996 12.0001 13.9996C11.7168 13.9996 11.4794 14.0953 11.2881 14.2866C11.0961 14.4786 11.0001 14.7163 11.0001 14.9996C11.0001 15.2829 11.0961 15.5203 11.2881 15.7116C11.4794 15.9036 11.7168 15.9996 12.0001 15.9996Z" fill="white"/>
</svg>
