<svg width="24" height="24" viewBox="0 0 24 24" fill="none" xmlns="http://www.w3.org/2000/svg">
<path d="M11.9998 6.74981C10.9615 6.74981 9.94643 7.05772 9.08307 7.6346C8.21971 8.21147 7.5468 9.03141 7.14945 9.99072C6.75209 10.95 6.64812 12.0056 6.85069 13.024C7.05326 14.0424 7.55328 14.9779 8.2875 15.7121C9.02173 16.4463 9.95719 16.9464 10.9756 17.1489C11.994 17.3515 13.0496 17.2475 14.0089 16.8502C14.9682 16.4528 15.7881 15.7799 16.365 14.9166C16.9419 14.0532 17.2498 13.0382 17.2498 11.9998C17.2498 10.6074 16.6967 9.27207 15.7121 8.2875C14.7276 7.30294 13.3922 6.74981 11.9998 6.74981ZM11.9998 14.9998C11.4065 14.9998 10.8264 14.8239 10.3331 14.4942C9.83975 14.1646 9.45524 13.696 9.22817 13.1479C9.00111 12.5997 8.9417 11.9965 9.05746 11.4145C9.17321 10.8326 9.45893 10.298 9.87849 9.87849C10.298 9.45893 10.8326 9.17321 11.4145 9.05746C11.9965 8.9417 12.5997 9.00111 13.1479 9.22817C13.696 9.45524 14.1646 9.83975 14.4942 10.3331C14.8239 10.8264 14.9998 11.4065 14.9998 11.9998C14.9973 12.7947 14.6805 13.5563 14.1184 14.1184C13.5563 14.6805 12.7947 14.9973 11.9998 14.9998ZM22.3123 13.8748L20.9904 12.1123V11.8873L22.3123 10.1248C22.4128 9.98764 22.4818 9.82994 22.5142 9.663C22.5466 9.49605 22.5417 9.32401 22.4998 9.15919C22.2576 8.25982 21.8983 7.39617 21.4311 6.59044C21.3471 6.44148 21.2298 6.31401 21.0882 6.21803C20.9467 6.12206 20.7849 6.0602 20.6154 6.03731L18.4498 5.72794L18.2717 5.54981L17.9623 3.38419C17.9394 3.21474 17.8776 3.0529 17.7816 2.91138C17.6856 2.76986 17.5581 2.65252 17.4092 2.56856C16.6034 2.10133 15.7398 1.742 14.8404 1.49981C14.6759 1.45519 14.5032 1.44889 14.3358 1.48139C14.1684 1.5139 14.0107 1.58434 13.8748 1.68731L12.1217 2.99981H11.8779L10.1248 1.68731C9.98764 1.58679 9.82994 1.51785 9.663 1.48543C9.49605 1.45302 9.32401 1.45793 9.15919 1.49981C8.25982 1.742 7.39617 2.10133 6.59044 2.56856C6.44148 2.65252 6.31401 2.76986 6.21803 2.91138C6.12206 3.0529 6.0602 3.21474 6.03731 3.38419L5.72794 5.54981C5.66396 5.60439 5.60439 5.66396 5.54981 5.72794L3.38419 6.03731C3.21474 6.0602 3.0529 6.12206 2.91138 6.21803C2.76986 6.31401 2.65252 6.44148 2.56856 6.59044C2.10133 7.39617 1.742 8.25982 1.49981 9.15919C1.45519 9.32377 1.44889 9.49639 1.48139 9.66378C1.5139 9.83118 1.58434 9.98889 1.68731 10.1248L3.00919 11.8873V12.1123L1.68731 13.8748C1.58679 14.012 1.51785 14.1697 1.48543 14.3366C1.45302 14.5036 1.45793 14.6756 1.49981 14.8404C1.742 15.7398 2.10133 16.6034 2.56856 17.4092C2.65252 17.5581 2.76986 17.6856 2.91138 17.7816C3.0529 17.8776 3.21474 17.9394 3.38419 17.9623L5.54981 18.2717L5.72794 18.4498L6.03731 20.6154C6.0602 20.7849 6.12206 20.9467 6.21803 21.0882C6.31401 21.2298 6.44148 21.3471 6.59044 21.4311C7.39617 21.8983 8.25982 22.2576 9.15919 22.4998C9.25368 22.5266 9.35162 22.5392 9.44981 22.5373C9.69345 22.5387 9.93073 22.4596 10.1248 22.3123L11.8779 20.9998H12.1217L13.8748 22.3123C14.012 22.4128 14.1697 22.4818 14.3366 22.5142C14.5036 22.5466 14.6756 22.5417 14.8404 22.4998C15.7398 22.2576 16.6034 21.8983 17.4092 21.4311C17.5581 21.3471 17.6856 21.2298 17.7816 21.0882C17.8776 20.9467 17.9394 20.7849 17.9623 20.6154L18.2811 18.4404L18.4404 18.2811L20.6154 17.9623C20.7849 17.9394 20.9467 17.8776 21.0882 17.7816C21.2298 17.6856 21.3471 17.5581 21.4311 17.4092C21.8983 16.6034 22.2576 15.7398 22.4998 14.8404C22.5444 14.6759 22.5507 14.5032 22.5182 14.3358C22.4857 14.1684 22.4153 14.0107 22.3123 13.8748ZM19.7342 15.8154L17.7373 16.1061C17.4873 16.143 17.2565 16.2616 17.0811 16.4436C16.9217 16.6123 16.6217 16.9217 16.4717 17.0529C16.2738 17.2315 16.1445 17.4736 16.1061 17.7373L15.8154 19.7342C15.4764 19.9058 15.1255 20.0531 14.7654 20.1748L13.1529 18.9561C12.9403 18.7969 12.6772 18.7203 12.4123 18.7404H11.5873C11.3227 18.722 11.0601 18.7984 10.8467 18.9561L9.23419 20.1748C8.87416 20.0531 8.52327 19.9058 8.18419 19.7342L7.89356 17.7373C7.85515 17.4736 7.72583 17.2315 7.52794 17.0529C7.32038 16.8735 7.12612 16.6792 6.94669 16.4717C6.76813 16.2738 6.52607 16.1445 6.26231 16.1061L4.26544 15.8154C4.0938 15.4764 3.94655 15.1255 3.82481 14.7654L5.04356 13.1529C5.19297 12.9492 5.27195 12.7024 5.26856 12.4498C5.25919 12.2154 5.24981 11.7842 5.25919 11.5873C5.27766 11.3227 5.20121 11.0601 5.04356 10.8467L3.82481 9.23419C3.94655 8.87416 4.0938 8.52327 4.26544 8.18419L6.26231 7.89356C6.52607 7.85515 6.76813 7.72583 6.94669 7.52794C7.12612 7.32038 7.32038 7.12612 7.52794 6.94669C7.72583 6.76813 7.85515 6.52607 7.89356 6.26231L8.18419 4.26544C8.52327 4.0938 8.87416 3.94655 9.23419 3.82481L10.8467 5.04356C11.0593 5.20274 11.3225 5.27935 11.5873 5.25919C11.8592 5.24981 12.1404 5.24981 12.4123 5.25919C12.6772 5.27935 12.9403 5.20274 13.1529 5.04356L14.7654 3.82481C15.1255 3.94655 15.4764 4.0938 15.8154 4.26544L16.1061 6.26231C16.1445 6.52607 16.2738 6.76813 16.4717 6.94669C16.6792 7.12612 16.8735 7.32038 17.0529 7.52794C17.2315 7.72583 17.4736 7.85515 17.7373 7.89356L19.7342 8.18419C19.9058 8.52327 20.0531 8.87416 20.1748 9.23419L18.9561 10.8467C18.8054 11.0493 18.7293 11.2976 18.7404 11.5498C18.7404 11.7842 18.7498 12.2154 18.7404 12.4123C18.7203 12.6772 18.7969 12.9403 18.9561 13.1529L20.1748 14.7654C20.0531 15.1255 19.9058 15.4764 19.7342 15.8154Z" fill="#0153FF"/>
</svg>
