<svg width="28" height="28" viewBox="0 0 28 28" fill="none" xmlns="http://www.w3.org/2000/svg">
<g clip-path="url(#clip0_453_551)">
<path fill-rule="evenodd" clip-rule="evenodd" d="M20.8635 2.33334C21.1915 2.33349 21.5157 2.40277 21.8151 2.53669C22.1145 2.6706 22.3824 2.86613 22.6011 3.11052C22.8198 3.35492 22.9846 3.64268 23.0846 3.95504C23.1847 4.2674 23.2177 4.59735 23.1816 4.92334L21.1085 23.59C21.0453 24.1609 20.7737 24.6885 20.3458 25.0717C19.9178 25.4549 19.3636 25.6667 18.7891 25.6667H9.2108C8.63638 25.6667 8.08213 25.4549 7.65418 25.0717C7.22623 24.6885 6.95466 24.1609 6.89147 23.59L4.81714 4.92334C4.78105 4.59725 4.81413 4.26721 4.91424 3.95476C5.01434 3.64232 5.1792 3.3545 5.39807 3.11009C5.61694 2.86568 5.88489 2.67017 6.18444 2.53633C6.48398 2.40249 6.80839 2.33332 7.13647 2.33334H20.8635ZM20.8635 4.66668H7.13647L7.6323 9.12684C8.05115 9.04703 8.47478 8.99481 8.90047 8.97051C10.2993 8.88884 12.2325 9.05684 14.4596 10.0112C16.3158 10.8068 17.8826 10.9305 18.963 10.8663C19.3776 10.8443 19.7895 10.7857 20.1938 10.6913L20.8635 4.66668ZM19.9243 13.1133C19.677 13.1483 19.4005 13.1787 19.0995 13.195C17.7006 13.2778 15.7675 13.1098 13.5403 12.1567C11.6841 11.3598 10.1173 11.2362 9.03697 11.3003C8.6515 11.3216 8.26837 11.3739 7.8913 11.4567L9.2108 23.3333H18.7891L19.9243 13.1133ZM12.8333 15.1667C12.8333 15.4761 12.7104 15.7728 12.4916 15.9916C12.2728 16.2104 11.9761 16.3333 11.6666 16.3333C11.3572 16.3333 11.0605 16.2104 10.8417 15.9916C10.6229 15.7728 10.5 15.4761 10.5 15.1667C10.5 14.8573 10.6229 14.5605 10.8417 14.3417C11.0605 14.1229 11.3572 14 11.6666 14C11.9761 14 12.2728 14.1229 12.4916 14.3417C12.7104 14.5605 12.8333 14.8573 12.8333 15.1667ZM15.1666 19.8333C15.4761 19.8333 15.7728 19.7104 15.9916 19.4916C16.2104 19.2728 16.3333 18.9761 16.3333 18.6667C16.3333 18.3573 16.2104 18.0605 15.9916 17.8417C15.7728 17.6229 15.4761 17.5 15.1666 17.5C14.8572 17.5 14.5605 17.6229 14.3417 17.8417C14.1229 18.0605 14 18.3573 14 18.6667C14 18.9761 14.1229 19.2728 14.3417 19.4916C14.5605 19.7104 14.8572 19.8333 15.1666 19.8333Z" fill="#0153FF"/>
</g>
<defs>
<clipPath id="clip0_453_551">
<rect width="28" height="28" fill="white"/>
</clipPath>
</defs>
</svg>
