<svg width="24" height="24" viewBox="0 0 24 24" fill="none" xmlns="http://www.w3.org/2000/svg">
<path d="M21.7099 8.70968C22.9599 7.45968 22.3899 5.99968 21.7099 5.28968L18.7099 2.28968C17.4499 1.03968 15.9999 1.60968 15.2899 2.28968L13.5899 3.99968H10.9999C9.09993 3.99968 7.99993 4.99968 7.43993 6.14968L2.99993 10.5897V14.5897L2.28993 15.2897C1.03993 16.5497 1.60993 17.9997 2.28993 18.7097L5.28993 21.7097C5.82993 22.2497 6.40993 22.4497 6.95993 22.4497C7.66993 22.4497 8.31993 22.0997 8.70993 21.7097L11.4099 18.9997H14.9999C16.6999 18.9997 17.5599 17.9397 17.8699 16.8997C18.9999 16.5997 19.6199 15.7397 19.8699 14.8997C21.4199 14.4997 21.9999 13.0297 21.9999 11.9997V8.99968H21.4099L21.7099 8.70968ZM19.9999 11.9997C19.9999 12.4497 19.8099 12.9997 18.9999 12.9997H17.9999V13.9997C17.9999 14.4497 17.8099 14.9997 16.9999 14.9997H15.9999V15.9997C15.9999 16.4497 15.8099 16.9997 14.9999 16.9997H10.5899L7.30993 20.2797C6.99993 20.5697 6.81993 20.3997 6.70993 20.2897L3.71993 17.3097C3.42993 16.9997 3.59993 16.8197 3.70993 16.7097L4.99993 15.4097V11.4097L6.99993 9.40968V10.9997C6.99993 12.2097 7.79993 13.9997 9.99993 13.9997C12.1999 13.9997 12.9999 12.2097 12.9999 10.9997H19.9999V11.9997ZM20.2899 7.28968L18.5899 8.99968H10.9999V10.9997C10.9999 11.4497 10.8099 11.9997 9.99993 11.9997C9.18993 11.9997 8.99993 11.4497 8.99993 10.9997V7.99968C8.99993 7.53968 9.16993 5.99968 10.9999 5.99968H14.4099L16.6899 3.71968C16.9999 3.42968 17.1799 3.59968 17.2899 3.70968L20.2799 6.68968C20.5699 6.99968 20.3999 7.17968 20.2899 7.28968Z" fill="white"/>
</svg>
