<svg width="26" height="26" viewBox="0 0 26 26" fill="none" xmlns="http://www.w3.org/2000/svg">
<path d="M6.50016 20.5837H9.75017V14.0837H16.2502V20.5837H19.5002V10.8337L13.0002 5.95866L6.50016 10.8337V20.5837ZM6.50016 22.7503C5.90433 22.7503 5.39444 22.5384 4.9705 22.1144C4.54583 21.6897 4.3335 21.1795 4.3335 20.5837V10.8337C4.3335 10.4906 4.41041 10.1656 4.56425 9.85866C4.71736 9.55172 4.92933 9.29894 5.20016 9.10033L11.7002 4.22533C11.8988 4.08088 12.1064 3.97255 12.3231 3.90033C12.5398 3.8281 12.7654 3.79199 13.0002 3.79199C13.2349 3.79199 13.4606 3.8281 13.6773 3.90033C13.8939 3.97255 14.1016 4.08088 14.3002 4.22533L20.8002 9.10033C21.071 9.29894 21.2833 9.55172 21.4372 9.85866C21.5903 10.1656 21.6668 10.4906 21.6668 10.8337V20.5837C21.6668 21.1795 21.4549 21.6897 21.0309 22.1144C20.6063 22.5384 20.096 22.7503 19.5002 22.7503H14.0835V16.2503H11.9168V22.7503H6.50016Z" fill="#575757"/>
</svg>
