<svg width="27" height="26" viewBox="0 0 27 26" fill="none" xmlns="http://www.w3.org/2000/svg">
<path d="M6.99992 20.5833H10.2499V14.0833H16.7499V20.5833H19.9999V10.8333L13.4999 5.95834L6.99992 10.8333V20.5833ZM6.99992 22.75C6.40409 22.75 5.8942 22.538 5.47025 22.1141C5.04559 21.6894 4.83325 21.1792 4.83325 20.5833V10.8333C4.83325 10.4903 4.91017 10.1653 5.064 9.85834C5.21711 9.5514 5.42909 9.29862 5.69992 9.10001L12.1999 4.22501C12.3985 4.08056 12.6062 3.97223 12.8228 3.90001C13.0395 3.82778 13.2652 3.79167 13.4999 3.79167C13.7346 3.79167 13.9603 3.82778 14.177 3.90001C14.3937 3.97223 14.6013 4.08056 14.7999 4.22501L21.2999 9.10001C21.5708 9.29862 21.7831 9.5514 21.9369 9.85834C22.09 10.1653 22.1666 10.4903 22.1666 10.8333V20.5833C22.1666 21.1792 21.9546 21.6894 21.5307 22.1141C21.106 22.538 20.5958 22.75 19.9999 22.75H14.5833V16.25H12.4166V22.75H6.99992Z" fill="#0153FF"/>
</svg>
