<svg width="48" height="48" viewBox="0 0 48 48" fill="none" xmlns="http://www.w3.org/2000/svg">
<path d="M27.24 16.7638L31.172 12.8298C30.7068 12.3648 30.3635 11.7922 30.1725 11.1628C29.9814 10.5333 29.9485 9.86651 30.0767 9.22134C30.2049 8.57618 30.4903 7.97258 30.9075 7.46403C31.3247 6.95547 31.8608 6.55765 32.4685 6.30579C33.0761 6.05394 33.7365 5.95583 34.3912 6.02015C35.0458 6.08447 35.6744 6.30923 36.2215 6.67454C36.7685 7.03984 37.217 7.53441 37.5272 8.11444C37.8374 8.69447 37.9998 9.34205 38 9.99983C38.658 9.99936 39.3059 10.1612 39.8863 10.471C40.4668 10.7808 40.9618 11.229 41.3276 11.7759C41.6935 12.3228 41.9187 12.9515 41.9835 13.6062C42.0482 14.261 41.9504 14.9216 41.6988 15.5295C41.4472 16.1375 41.0495 16.6739 40.541 17.0914C40.0325 17.5089 39.4288 17.7945 38.7835 17.9229C38.1382 18.0513 37.4712 18.0186 36.8416 17.8275C36.212 17.6365 35.6392 17.2931 35.174 16.8278L31.534 20.4698M15 31.9998L17 33.9998M11.808 37.1918C17.274 42.6598 23.608 45.1918 25.948 42.8498C28.292 40.5058 25.76 34.1738 20.292 28.7078C14.826 23.2398 8.49202 20.7078 6.15202 23.0498C3.80802 25.3938 6.34002 31.7258 11.808 37.1918Z" stroke="#0153FF" stroke-width="3.5" stroke-linecap="round" stroke-linejoin="round"/>
<path d="M25.9499 42.8499C33.7599 35.0379 35.6599 24.2739 30.1919 18.8079C24.7259 13.3399 13.9619 15.2399 6.15186 23.0499" stroke="#0153FF" stroke-width="3.5" stroke-linecap="round" stroke-linejoin="round"/>
</svg>
