<svg width="30" height="30" viewBox="0 0 30 30" fill="none" xmlns="http://www.w3.org/2000/svg">
<path d="M15 21.25C15.3542 21.25 15.6513 21.1354 15.8913 20.9062C16.1304 20.6771 16.25 20.3854 16.25 20.0312V17.5H18.75C19.1042 17.5 19.4013 17.38 19.6413 17.14C19.8804 16.9008 20 16.6042 20 16.25C20 15.8958 19.8854 15.5987 19.6562 15.3587C19.4271 15.1196 19.1354 15 18.7812 15H16.25V12.5C16.25 12.1458 16.1304 11.8487 15.8913 11.6087C15.6513 11.3696 15.3542 11.25 15 11.25C14.6458 11.25 14.3492 11.3646 14.11 11.5938C13.87 11.8229 13.75 12.1146 13.75 12.4688V15H11.25C10.8958 15 10.5992 15.1196 10.36 15.3587C10.12 15.5987 10 15.8958 10 16.25C10 16.6042 10.1146 16.9008 10.3437 17.14C10.5729 17.38 10.8646 17.5 11.2188 17.5H13.75V20C13.75 20.3542 13.87 20.6508 14.11 20.89C14.3492 21.13 14.6458 21.25 15 21.25ZM15 27.5C13.4375 27.5 11.9742 27.2033 10.61 26.61C9.245 26.0158 8.0575 25.2133 7.0475 24.2025C6.03667 23.1925 5.23417 22.005 4.64 20.64C4.04667 19.2758 3.75 17.8125 3.75 16.25C3.75 14.6875 4.04667 13.2238 4.64 11.8588C5.23417 10.4946 6.03667 9.30708 7.0475 8.29625C8.0575 7.28625 9.245 6.48458 10.61 5.89125C11.9742 5.29708 13.4375 5 15 5C16.5625 5 18.0262 5.29708 19.3913 5.89125C20.7554 6.48458 21.9429 7.28625 22.9538 8.29625C23.9638 9.30708 24.7658 10.4946 25.36 11.8588C25.9533 13.2238 26.25 14.6875 26.25 16.25C26.25 17.8125 25.9533 19.2758 25.36 20.64C24.7658 22.005 23.9638 23.1925 22.9538 24.2025C21.9429 25.2133 20.7554 26.0158 19.3913 26.61C18.0262 27.2033 16.5625 27.5 15 27.5ZM4.28125 9.15625C4.05208 9.38542 3.77083 9.5 3.4375 9.5C3.10417 9.5 2.8125 9.375 2.5625 9.125C2.33333 8.89583 2.21875 8.60417 2.21875 8.25C2.21875 7.89583 2.33333 7.60417 2.5625 7.375L6.15625 3.78125C6.38542 3.55208 6.66667 3.4375 7 3.4375C7.33333 3.4375 7.625 3.5625 7.875 3.8125C8.10417 4.04167 8.21875 4.33333 8.21875 4.6875C8.21875 5.04167 8.10417 5.33333 7.875 5.5625L4.28125 9.15625ZM25.6875 9.125L22.0938 5.53125C21.8646 5.30208 21.75 5.02083 21.75 4.6875C21.75 4.35417 21.875 4.0625 22.125 3.8125C22.3542 3.58333 22.6458 3.46875 23 3.46875C23.3542 3.46875 23.6458 3.58333 23.875 3.8125L27.4688 7.40625C27.6979 7.63542 27.8125 7.91667 27.8125 8.25C27.8125 8.58333 27.6875 8.875 27.4375 9.125C27.2083 9.35417 26.9167 9.46875 26.5625 9.46875C26.2083 9.46875 25.9167 9.35417 25.6875 9.125ZM15 25C17.4375 25 19.505 24.1508 21.2025 22.4525C22.9008 20.755 23.75 18.6875 23.75 16.25C23.75 13.8125 22.9008 11.7446 21.2025 10.0462C19.505 8.34875 17.4375 7.5 15 7.5C12.5625 7.5 10.495 8.34875 8.7975 10.0462C7.09917 11.7446 6.25 13.8125 6.25 16.25C6.25 18.6875 7.09917 20.755 8.7975 22.4525C10.495 24.1508 12.5625 25 15 25Z" fill="white"/>
</svg>
