<svg width="32" height="32" viewBox="0 0 32 32" fill="none" xmlns="http://www.w3.org/2000/svg">
<path d="M23.333 24C22.9552 24 22.6383 23.872 22.3823 23.616C22.1263 23.36 21.9988 23.0436 21.9997 22.6667V9.33334C21.9997 8.95556 22.1277 8.63867 22.3837 8.38267C22.6397 8.12667 22.9561 7.99912 23.333 8C23.7108 8 24.0277 8.128 24.2837 8.384C24.5397 8.64 24.6672 8.95645 24.6663 9.33334V22.6667C24.6663 23.0444 24.5383 23.3613 24.2823 23.6173C24.0263 23.8733 23.7099 24.0009 23.333 24ZM9.39967 22.6333C8.95523 22.9445 8.49967 22.9667 8.03301 22.7C7.56634 22.4333 7.33301 22.0333 7.33301 21.5V10.5C7.33301 9.96667 7.56634 9.572 8.03301 9.316C8.49967 9.06 8.95523 9.07689 9.39967 9.36667L17.6663 14.9C18.0663 15.1667 18.2663 15.5333 18.2663 16C18.2663 16.4667 18.0663 16.8333 17.6663 17.1L9.39967 22.6333Z" fill="#151515"/>
</svg>
