<svg width="14" height="14" viewBox="0 0 14 14" fill="none" xmlns="http://www.w3.org/2000/svg">
<path d="M4.4915 9.50866C4.59845 9.6156 4.73456 9.66908 4.89984 9.66908C5.06511 9.66908 5.20123 9.6156 5.30817 9.50866L6.99984 7.81699L8.70609 9.52324C8.81303 9.63019 8.94681 9.68132 9.10742 9.67666C9.26803 9.67199 9.40161 9.61599 9.50817 9.50866C9.61511 9.40171 9.66859 9.2656 9.66859 9.10033C9.66859 8.93505 9.61511 8.79894 9.50817 8.69199L7.8165 7.00033L9.52275 5.29408C9.6297 5.18713 9.68084 5.05335 9.67617 4.89274C9.6715 4.73213 9.6155 4.59855 9.50817 4.49199C9.40123 4.38505 9.26511 4.33158 9.09984 4.33158C8.93456 4.33158 8.79845 4.38505 8.6915 4.49199L6.99984 6.18366L5.29359 4.47741C5.18664 4.37046 5.05306 4.31952 4.89284 4.32458C4.73261 4.32963 4.59884 4.38544 4.4915 4.49199C4.38456 4.59894 4.33109 4.73505 4.33109 4.90033C4.33109 5.0656 4.38456 5.20171 4.4915 5.30866L6.18317 7.00033L4.47692 8.70658C4.36998 8.81352 4.31903 8.9473 4.32409 9.10791C4.32914 9.26852 4.38495 9.4021 4.4915 9.50866ZM6.99984 12.8337C6.19289 12.8337 5.43456 12.6804 4.72484 12.374C4.01512 12.0675 3.39775 11.652 2.87275 11.1274C2.34775 10.6024 1.93223 9.98505 1.62617 9.27533C1.32012 8.5656 1.16689 7.80727 1.1665 7.00033C1.1665 6.19338 1.31973 5.43505 1.62617 4.72533C1.93262 4.0156 2.34814 3.39824 2.87275 2.87324C3.39775 2.34824 4.01512 1.93271 4.72484 1.62666C5.43456 1.3206 6.19289 1.16738 6.99984 1.16699C7.80678 1.16699 8.56511 1.32021 9.27484 1.62666C9.98456 1.9331 10.6019 2.34863 11.1269 2.87324C11.6519 3.39824 12.0676 4.0156 12.3741 4.72533C12.6805 5.43505 12.8336 6.19338 12.8332 7.00033C12.8332 7.80727 12.6799 8.5656 12.3735 9.27533C12.0671 9.98505 11.6515 10.6024 11.1269 11.1274C10.6019 11.6524 9.98456 12.0681 9.27484 12.3746C8.56511 12.681 7.80678 12.834 6.99984 12.8337ZM6.99984 11.667C8.29289 11.667 9.39403 11.2126 10.3033 10.3037C11.2125 9.39491 11.6669 8.29377 11.6665 7.00033C11.6665 5.70727 11.2121 4.60613 10.3033 3.69691C9.39442 2.78769 8.29328 2.33327 6.99984 2.33366C5.70678 2.33366 4.60564 2.78808 3.69642 3.69691C2.7872 4.60574 2.33278 5.70688 2.33317 7.00033C2.33317 8.29338 2.78759 9.39452 3.69642 10.3037C4.60525 11.213 5.70639 11.6674 6.99984 11.667Z" fill="white"/>
</svg>
