<svg width="32" height="32" viewBox="0 0 32 32" fill="none" xmlns="http://www.w3.org/2000/svg">
<path d="M18.1429 21.7143V10.2857C18.1429 9.65714 18.3669 9.11886 18.8149 8.67086C19.2629 8.22286 19.8008 7.99924 20.4286 8C21.0571 8 21.5954 8.224 22.0434 8.672C22.4914 9.12 22.715 9.65791 22.7143 10.2857V21.7143C22.7143 22.3429 22.4903 22.8811 22.0423 23.3291C21.5943 23.7771 21.0564 24.0008 20.4286 24C19.8 24 19.2617 23.776 18.8137 23.328C18.3657 22.88 18.1421 22.3421 18.1429 21.7143ZM9 21.7143V10.2857C9 9.65714 9.224 9.11886 9.672 8.67086C10.12 8.22286 10.6579 7.99924 11.2857 8C11.9143 8 12.4526 8.224 12.9006 8.672C13.3486 9.12 13.5722 9.65791 13.5714 10.2857V21.7143C13.5714 22.3429 13.3474 22.8811 12.8994 23.3291C12.4514 23.7771 11.9135 24.0008 11.2857 24C10.6571 24 10.1189 23.776 9.67086 23.328C9.22286 22.88 8.99924 22.3421 9 21.7143Z" fill="#151515"/>
</svg>
