<svg width="26" height="26" viewBox="0 0 26 26" fill="none" xmlns="http://www.w3.org/2000/svg">
<path d="M13 6.39159C13.2988 6.39159 13.5946 6.45043 13.8707 6.56476C14.1467 6.67909 14.3975 6.84667 14.6087 7.05792C14.82 7.26917 14.9875 7.51997 15.1019 7.79598C15.2162 8.072 15.275 8.36783 15.275 8.66659C15.275 8.96534 15.2162 9.26118 15.1019 9.53719C14.9875 9.81321 14.82 10.064 14.6087 10.2753C14.3975 10.4865 14.1467 10.6541 13.8707 10.7684C13.5946 10.8827 13.2988 10.9416 13 10.9416C12.3967 10.9416 11.818 10.7019 11.3914 10.2753C10.9647 9.84861 10.725 9.26996 10.725 8.66659C10.725 8.06322 10.9647 7.48456 11.3914 7.05792C11.818 6.63127 12.3967 6.39159 13 6.39159ZM13 16.1416C16.2175 16.1416 19.6084 17.7233 19.6084 18.4166V19.6083H6.39171V18.4166C6.39171 17.7233 9.78254 16.1416 13 16.1416ZM13 4.33325C10.6059 4.33325 8.66671 6.27242 8.66671 8.66659C8.66671 11.0608 10.6059 12.9999 13 12.9999C15.3942 12.9999 17.3334 11.0608 17.3334 8.66659C17.3334 6.27242 15.3942 4.33325 13 4.33325ZM13 14.0833C10.1075 14.0833 4.33337 15.5349 4.33337 18.4166V21.6666H21.6667V18.4166C21.6667 15.5349 15.8925 14.0833 13 14.0833Z" fill="#575757"/>
</svg>
