<svg width="24" height="24" viewBox="0 0 24 24" fill="none" xmlns="http://www.w3.org/2000/svg">
<path d="M15.829 21C8.75573 21 3 15.2443 3 8.17096C3.00035 6.90593 3.46176 5.68439 4.29783 4.73503C5.13391 3.78567 6.28733 3.17357 7.54217 3.01334C7.91498 2.96671 8.29282 3.04308 8.61825 3.23083C8.94369 3.41858 9.19893 3.70745 9.34517 4.05353L11.0875 8.11028C11.2025 8.37333 11.2501 8.66093 11.2259 8.94702C11.2017 9.2331 11.1064 9.50862 10.9488 9.74858L9.61389 11.777C10.2053 12.8945 11.1209 13.8071 12.2404 14.3948L14.2427 13.0599C14.4836 12.9008 14.7602 12.8041 15.0476 12.7784C15.3351 12.7526 15.6245 12.7987 15.8897 12.9125L19.9465 14.6548C20.2925 14.8011 20.5814 15.0563 20.7692 15.3817C20.9569 15.7072 21.0333 16.085 20.9867 16.4578C20.8264 17.7127 20.2143 18.8661 19.265 19.7022C18.3156 20.5382 17.0941 20.9996 15.829 21V21ZM7.54217 5.11973C6.84488 5.27033 6.22024 5.65529 5.7723 6.21048C5.32436 6.76568 5.08016 7.45759 5.08039 8.17096C5.08268 11.021 6.21586 13.7536 8.23113 15.7689C10.2464 17.7841 12.979 18.9173 15.829 18.9196C16.5424 18.9198 17.2343 18.6756 17.7895 18.2277C18.3447 17.7798 18.7297 17.1551 18.8803 16.4578L15.2396 14.8975L13.2286 16.2411C12.9784 16.4066 12.6898 16.5047 12.3907 16.526C12.0915 16.5473 11.7919 16.4909 11.5209 16.3625C9.83836 15.5476 8.47726 14.1926 7.65486 12.5138C7.52261 12.2441 7.46341 11.9445 7.48319 11.6449C7.50296 11.3452 7.60101 11.056 7.76755 10.8061L9.10246 8.7604L7.54217 5.11973Z" fill="#0153FF"/>
</svg>
