<svg width="32" height="32" viewBox="0 0 32 32" fill="none" xmlns="http://www.w3.org/2000/svg">
<path d="M8.66699 24C9.04477 24 9.36166 23.872 9.61766 23.616C9.87366 23.36 10.0012 23.0436 10.0003 22.6667V9.33334C10.0003 8.95556 9.87233 8.63867 9.61633 8.38267C9.36033 8.12667 9.04388 7.99912 8.66699 8C8.28922 8 7.97233 8.128 7.71633 8.384C7.46033 8.64 7.33277 8.95645 7.33366 9.33334V22.6667C7.33366 23.0444 7.46166 23.3613 7.71766 23.6173C7.97366 23.8733 8.2901 24.0009 8.66699 24ZM22.6003 22.6333C23.0448 22.9445 23.5003 22.9667 23.967 22.7C24.4337 22.4333 24.667 22.0333 24.667 21.5V10.5C24.667 9.96667 24.4337 9.572 23.967 9.316C23.5003 9.06 23.0448 9.07689 22.6003 9.36667L14.3337 14.9C13.9337 15.1667 13.7337 15.5333 13.7337 16C13.7337 16.4667 13.9337 16.8333 14.3337 17.1L22.6003 22.6333Z" fill="#151515"/>
</svg>
