<svg width="14" height="14" viewBox="0 0 14 14" fill="none" xmlns="http://www.w3.org/2000/svg">
<path d="M6.18317 8.05033L4.91442 6.78158C4.80748 6.67463 4.67389 6.62369 4.51367 6.62874C4.35306 6.63341 4.21928 6.68921 4.11234 6.79616C4.00539 6.9031 3.95192 7.03922 3.95192 7.20449C3.95192 7.36977 4.00539 7.50588 4.11234 7.61283L5.77484 9.27533C5.88178 9.38227 6.01789 9.43574 6.18317 9.43574C6.34845 9.43574 6.48456 9.38227 6.5915 9.27533L9.90192 5.96491C10.0089 5.85796 10.06 5.72419 10.0553 5.56358C10.0503 5.40335 9.99428 5.26977 9.88734 5.16283C9.78039 5.05588 9.64428 5.00241 9.479 5.00241C9.31373 5.00241 9.17762 5.05588 9.07067 5.16283L6.18317 8.05033ZM6.99984 12.8337C6.19289 12.8337 5.43456 12.6804 4.72484 12.374C4.01512 12.0679 3.39775 11.6524 2.87275 11.1274C2.34775 10.6024 1.93223 9.98505 1.62617 9.27533C1.31973 8.5656 1.1665 7.80727 1.1665 7.00033C1.1665 6.19338 1.31973 5.43505 1.62617 4.72533C1.93223 4.0156 2.34775 3.39824 2.87275 2.87324C3.39775 2.34824 4.01512 1.93252 4.72484 1.62608C5.43456 1.32002 6.19289 1.16699 6.99984 1.16699C7.80678 1.16699 8.56512 1.32002 9.27484 1.62608C9.98456 1.93252 10.6019 2.34824 11.1269 2.87324C11.6519 3.39824 12.0674 4.0156 12.3735 4.72533C12.6799 5.43505 12.8332 6.19338 12.8332 7.00033C12.8332 7.80727 12.6799 8.5656 12.3735 9.27533C12.0674 9.98505 11.6519 10.6024 11.1269 11.1274C10.6019 11.6524 9.98456 12.0679 9.27484 12.374C8.56512 12.6804 7.80678 12.8337 6.99984 12.8337ZM6.99984 11.667C8.29289 11.667 9.39403 11.2126 10.3033 10.3037C11.2121 9.39452 11.6665 8.29338 11.6665 7.00033C11.6665 5.70727 11.2121 4.60613 10.3033 3.69691C9.39403 2.78808 8.29289 2.33366 6.99984 2.33366C5.70678 2.33366 4.60584 2.78808 3.697 3.69691C2.78778 4.60613 2.33317 5.70727 2.33317 7.00033C2.33317 8.29338 2.78778 9.39452 3.697 10.3037C4.60584 11.2126 5.70678 11.667 6.99984 11.667Z" fill="white"/>
</svg>
