<svg width="48" height="48" viewBox="0 0 48 48" fill="none" xmlns="http://www.w3.org/2000/svg">
<path d="M14 39.3198V41.9998C14 42.5302 14.2107 43.0389 14.5858 43.414C14.9609 43.7891 15.4696 43.9998 16 43.9998H32C32.5304 43.9998 33.0391 43.7891 33.4142 43.414C33.7893 43.0389 34 42.5302 34 41.9998V39.3198C37.0403 37.5645 39.565 35.0398 41.3204 31.9995C43.0757 28.9592 43.9999 25.5104 44 21.9998C44 21.4693 43.7893 20.9606 43.4142 20.5856C43.0391 20.2105 42.5304 19.9998 42 19.9998C41.9634 18.7752 41.6132 17.5806 40.9828 16.5301C40.3525 15.4796 39.4632 14.6083 38.4 13.9998C38.145 12.2577 37.2707 10.6658 35.9373 9.51604C34.6038 8.36627 32.9007 7.73565 31.14 7.73977C30.4648 7.73861 29.7924 7.82602 29.14 7.99977C27.7634 6.68549 25.9333 5.95215 24.03 5.95215C22.1267 5.95215 20.2966 6.68549 18.92 7.99977C18.2676 7.82602 17.5952 7.73861 16.92 7.73977C15.1525 7.72598 13.4396 8.35223 12.0978 9.50287C10.756 10.6535 9.87591 12.2508 9.62 13.9998C8.55303 14.6059 7.65973 15.476 7.02583 16.5267C6.39192 17.5773 6.03868 18.7733 6 19.9998C5.46957 19.9998 4.96086 20.2105 4.58579 20.5856C4.21071 20.9606 4 21.4693 4 21.9998C4.00009 25.5104 4.92426 28.9592 6.67962 31.9995C8.43498 35.0398 10.9597 37.5645 14 39.3198ZM12.22 17.3198L13.88 16.7998L13.56 14.9998C13.5652 14.569 13.6552 14.1435 13.8249 13.7476C13.9946 13.3516 14.2406 12.993 14.5489 12.6921C14.8572 12.3912 15.2217 12.154 15.6217 11.9941C16.0217 11.8341 16.4493 11.7545 16.88 11.7598C17.4576 11.7565 18.0273 11.8938 18.54 12.1598L20.16 13.0598L21.16 11.5198C21.4727 11.0537 21.8954 10.6717 22.3907 10.4075C22.886 10.1434 23.4387 10.0052 24 10.0052C24.5613 10.0052 25.114 10.1434 25.6093 10.4075C26.1046 10.6717 26.5273 11.0537 26.84 11.5198L27.84 13.0598L29.46 12.1598C29.9727 11.8938 30.5424 11.7565 31.12 11.7598C31.9851 11.7489 32.8198 12.0782 33.4445 12.6767C34.0692 13.2752 34.4339 14.095 34.46 14.9598L34.14 16.6598L35.78 17.2198C36.385 17.4091 36.9196 17.7749 37.3151 18.2703C37.7107 18.7656 37.9492 19.3679 38 19.9998H10C10.0508 19.3679 10.2893 18.7656 10.6849 18.2703C11.0804 17.7749 11.615 17.4091 12.22 17.2198V17.3198ZM39.88 23.9998C39.5463 26.6182 38.57 29.1134 37.0381 31.263C35.5061 33.4126 33.4662 35.1498 31.1 36.3198C30.7671 36.4875 30.4878 36.7449 30.2934 37.063C30.099 37.381 29.9974 37.747 30 38.1198V39.9998H18V38.1198C18.0026 37.747 17.901 37.381 17.7066 37.063C17.5122 36.7449 17.2329 36.4875 16.9 36.3198C14.5338 35.1498 12.4939 33.4126 10.9619 31.263C9.42998 29.1134 8.45367 26.6182 8.12 23.9998H39.88Z" fill="#0153FF"/>
</svg>
