<svg width="48" height="48" viewBox="0 0 48 48" fill="none" xmlns="http://www.w3.org/2000/svg">
<path d="M29.9318 13.5C31.2669 13.5 32.5719 13.1041 33.6819 12.3624C34.792 11.6207 35.6571 10.5665 36.168 9.33312C36.6789 8.09971 36.8126 6.74252 36.5521 5.43314C36.2917 4.12377 35.6488 2.92104 34.7048 1.97703C33.7608 1.03303 32.5581 0.390153 31.2487 0.129702C29.9393 -0.130748 28.5821 0.00292464 27.3487 0.513816C26.1153 1.02471 25.0611 1.88987 24.3194 2.9999C23.5777 4.10994 23.1818 5.41498 23.1818 6.75C23.1818 8.54021 23.893 10.2571 25.1589 11.523C26.4247 12.7888 28.1416 13.5 29.9318 13.5V13.5ZM29.9318 4.5C30.3768 4.5 30.8119 4.63196 31.1819 4.8792C31.5519 5.12643 31.8403 5.47783 32.0106 5.88897C32.1809 6.3001 32.2254 6.7525 32.1386 7.18896C32.0518 7.62541 31.8375 8.02633 31.5228 8.34099C31.2082 8.65566 30.8072 8.86995 30.3708 8.95677C29.9343 9.04359 29.4819 8.99903 29.0708 8.82873C28.6597 8.65843 28.3083 8.37005 28.061 8.00004C27.8138 7.63003 27.6818 7.19501 27.6818 6.75C27.6818 6.15327 27.9189 5.58097 28.3408 5.15901C28.7628 4.73706 29.3351 4.5 29.9318 4.5V4.5ZM41.4818 24.7875C41.1818 24.9375 39.7756 25.5938 37.3756 25.5938C37.0189 25.5993 36.6622 25.5868 36.3068 25.5563C33.4006 25.3313 30.3443 24.225 27.1943 22.275C26.7818 23.1563 26.2943 24.15 25.7131 25.1625C30.1568 26.775 36.6818 30.7125 36.6818 39.75C36.6818 40.3467 36.4448 40.919 36.0228 41.341C35.6009 41.7629 35.0286 42 34.4318 42C33.8351 42 33.2628 41.7629 32.8408 41.341C32.4189 40.919 32.1818 40.3467 32.1818 39.75C32.1818 36.2438 30.8693 33.5438 28.1881 31.5188C26.4818 30.2063 24.5318 29.4375 23.0506 29.0063C22.6943 29.4375 22.3193 29.8688 21.9068 30.3C18.2881 34.1063 13.8631 36.075 9.02558 36.075C8.41799 36.0807 7.81061 36.0494 7.20683 35.9813C6.89601 35.9753 6.5898 35.905 6.30751 35.7748C6.02523 35.6445 5.77299 35.4572 5.5667 35.2247C5.36042 34.9921 5.20457 34.7193 5.10899 34.4235C5.01341 34.1276 4.98016 33.8152 5.01135 33.5059C5.04254 33.1966 5.13749 32.8971 5.29021 32.6263C5.44293 32.3556 5.65011 32.1194 5.89867 31.9327C6.14723 31.746 6.43179 31.6128 6.73439 31.5415C7.037 31.4703 7.35108 31.4625 7.65683 31.5188C11.8381 31.9313 15.5318 30.4688 18.6631 27.1875C19.2603 26.5539 19.8176 25.8839 20.3318 25.1813C21.5811 23.4481 22.6197 21.5724 23.4256 19.5938C20.5381 17.4938 17.7818 16.65 15.1943 17.0625C14.0048 17.2459 12.8819 17.7299 11.9318 18.4688H11.9506C11.5354 18.8488 10.9947 19.0624 10.4318 19.0688C9.9764 19.0707 9.5311 18.9344 9.1548 18.6778C8.7785 18.4212 8.48892 18.0565 8.32434 17.6319C8.15975 17.2072 8.12792 16.7426 8.23304 16.2994C8.33816 15.8563 8.57529 15.4555 8.91308 15.15C9.10058 14.9625 10.9756 13.3125 14.1256 12.7125C19.3006 11.7188 23.8756 14.25 26.8193 16.5375L27.4568 17.025H27.4756C35.0693 22.6875 39.4006 20.8125 39.4381 20.7938H39.3818C39.7097 20.6363 40.0682 20.5531 40.4318 20.55C40.9336 20.551 41.4207 20.7198 41.8155 21.0294C42.2104 21.339 42.4904 21.7718 42.6111 22.2588C42.7318 22.7459 42.6862 23.2593 42.4816 23.7175C42.277 24.1757 41.9251 24.5523 41.4818 24.7875Z" fill="#0153FF"/>
</svg>
