<svg width="62" height="40" viewBox="0 0 62 40" fill="none" xmlns="http://www.w3.org/2000/svg">
<path d="M5.8125 0.625C4.27093 0.625 2.7925 1.23739 1.70244 2.32744C0.612387 3.4175 0 4.89593 0 6.4375L0 12.25C0 12.7639 0.204129 13.2567 0.567481 13.62C0.930832 13.9834 1.42364 14.1875 1.9375 14.1875C3.47907 14.1875 4.9575 14.7999 6.04756 15.8899C7.13761 16.98 7.75 18.4584 7.75 20C7.75 21.5416 7.13761 23.02 6.04756 24.1101C4.9575 25.2001 3.47907 25.8125 1.9375 25.8125C1.42364 25.8125 0.930832 26.0166 0.567481 26.38C0.204129 26.7433 0 27.2361 0 27.75L0 33.5625C0 35.1041 0.612387 36.5825 1.70244 37.6726C2.7925 38.7626 4.27093 39.375 5.8125 39.375H56.1875C57.7291 39.375 59.2075 38.7626 60.2976 37.6726C61.3876 36.5825 62 35.1041 62 33.5625V27.75C62 27.2361 61.7959 26.7433 61.4325 26.38C61.0692 26.0166 60.5764 25.8125 60.0625 25.8125C58.5209 25.8125 57.0425 25.2001 55.9524 24.1101C54.8624 23.02 54.25 21.5416 54.25 20C54.25 18.4584 54.8624 16.98 55.9524 15.8899C57.0425 14.7999 58.5209 14.1875 60.0625 14.1875C60.5764 14.1875 61.0692 13.9834 61.4325 13.62C61.7959 13.2567 62 12.7639 62 12.25V6.4375C62 4.89593 61.3876 3.4175 60.2976 2.32744C59.2075 1.23739 57.7291 0.625 56.1875 0.625H5.8125Z" fill="#0153FF"/>
</svg>
