<svg width="24" height="24" viewBox="0 0 24 24" fill="none" xmlns="http://www.w3.org/2000/svg">
<path d="M8.50004 8.49955L15.5 15.4996M4.50004 12.4996L12.5 4.49955C13.4283 3.57129 14.6873 3.0498 16 3.0498C17.3128 3.0498 18.5718 3.57129 19.5 4.49955C20.4283 5.42781 20.9498 6.68679 20.9498 7.99955C20.9498 9.3123 20.4283 10.5713 19.5 11.4996L11.5 19.4996C10.5718 20.4278 9.3128 20.9493 8.00004 20.9493C6.68729 20.9493 5.4283 20.4278 4.50004 19.4996C3.57178 18.5713 3.05029 17.3123 3.05029 15.9996C3.05029 14.6868 3.57178 13.4278 4.50004 12.4996Z" stroke="white" stroke-width="2" stroke-linecap="round" stroke-linejoin="round"/>
</svg>
