<svg width="390" height="420" viewBox="0 0 390 420" fill="none" xmlns="http://www.w3.org/2000/svg">
<rect width="390" height="420" fill="url(#paint0_linear_248_2476)"/>
<mask id="mask0_248_2476" style="mask-type:alpha" maskUnits="userSpaceOnUse" x="0" y="0" width="390" height="420">
<rect width="390" height="420" fill="#AB2928"/>
</mask>
<g mask="url(#mask0_248_2476)">
<path d="M356.37 -3.91624C358.293 -0.814162 359.535 2.60474 360.024 6.14527C360.513 9.68579 360.24 13.2786 359.22 16.7186C358.2 20.1585 356.453 23.3783 354.08 26.1939C351.706 29.0096 348.752 31.3661 345.386 33.1289C342.02 34.8916 338.308 36.0262 334.463 36.4676C330.617 36.9091 326.713 36.6489 322.973 35.7018C319.232 34.7548 315.73 33.1395 312.665 30.9481C309.6 28.7567 307.032 26.0322 305.109 22.9301L313.545 18.5119C314.835 20.5929 316.558 22.4206 318.614 23.8907C320.67 25.3608 323.02 26.4444 325.529 27.0797C328.038 27.715 330.657 27.8896 333.237 27.5934C335.817 27.2973 338.307 26.5362 340.565 25.3537C342.823 24.1711 344.805 22.5903 346.397 20.7014C347.989 18.8125 349.161 16.6525 349.845 14.3448C350.529 12.0372 350.713 9.62693 350.385 7.25178C350.057 4.87663 349.224 2.58306 347.933 0.502042L356.37 -3.91624Z" fill="white"/>
<path d="M324.086 1.09114C326.593 5.13358 325.069 10.2728 320.683 12.5699C316.297 14.867 310.709 13.4522 308.202 9.40974C305.696 5.36731 307.22 0.228086 311.606 -2.06903C315.992 -4.36615 321.58 -2.95129 324.086 1.09114Z" fill="white"/>
<path d="M342.136 -8.36181C344.642 -4.31938 343.119 0.819845 338.732 3.11696C334.346 5.41408 328.759 3.99922 326.252 -0.0432119C323.746 -4.08565 325.269 -9.22487 329.655 -11.522C334.042 -13.8191 339.629 -12.4042 342.136 -8.36181Z" fill="white"/>
<path d="M151.429 104.409C154.64 109.586 156.712 115.293 157.528 121.202C158.345 127.111 157.888 133.108 156.186 138.85C154.484 144.591 151.569 149.965 147.607 154.665C143.645 159.364 138.715 163.297 133.097 166.239C127.479 169.182 121.284 171.075 114.866 171.812C108.447 172.549 101.93 172.114 95.6878 170.534C89.4453 168.953 83.5993 166.257 78.4834 162.599C73.3676 158.942 69.0821 154.395 65.8717 149.217L79.9525 141.843C82.1062 145.316 84.9811 148.367 88.413 150.82C91.845 153.274 95.7668 155.083 99.9545 156.143C104.142 157.203 108.514 157.495 112.82 157C117.126 156.506 121.282 155.236 125.051 153.262C128.819 151.288 132.127 148.65 134.784 145.497C137.442 142.344 139.398 138.739 140.54 134.888C141.682 131.036 141.988 127.013 141.44 123.049C140.893 119.085 139.502 115.257 137.349 111.783L151.429 104.409Z" fill="white"/>
<path d="M97.5464 112.767C101.73 119.514 99.1868 128.091 91.866 131.925C84.5452 135.759 75.2191 133.398 71.0356 126.651C66.852 119.904 69.3952 111.326 76.716 107.492C84.0367 103.658 93.3628 106.019 97.5464 112.767Z" fill="white"/>
<path d="M127.672 96.989C131.856 103.736 129.313 112.314 121.992 116.148C114.671 119.982 105.345 117.62 101.161 110.873C96.9779 104.126 99.5211 95.5485 106.842 91.7145C114.163 87.8805 123.489 90.2419 127.672 96.989Z" fill="white"/>
<path d="M259.686 414.244C257.763 419.936 254.644 425.224 250.505 429.808C246.366 434.392 241.288 438.182 235.562 440.96C229.837 443.739 223.574 445.453 217.134 446.003C210.693 446.554 204.199 445.93 198.024 444.169C191.849 442.407 186.113 439.542 181.143 435.736C176.173 431.931 172.068 427.26 169.06 421.99C166.053 416.72 164.203 410.954 163.616 405.022C163.028 399.089 163.715 393.107 165.638 387.415L181.116 391.831C179.826 395.649 179.365 399.662 179.759 403.642C180.153 407.621 181.394 411.489 183.412 415.025C185.429 418.56 188.184 421.694 191.517 424.247C194.851 426.8 198.699 428.722 202.842 429.904C206.985 431.085 211.341 431.504 215.662 431.134C219.982 430.765 224.183 429.615 228.024 427.751C231.866 425.887 235.272 423.345 238.048 420.27C240.825 417.195 242.918 413.647 244.207 409.829L259.686 414.244Z" fill="white"/>
<path d="M216.241 383.782C213.736 391.199 205.182 395.35 197.135 393.054C189.087 390.759 184.594 382.885 187.099 375.469C189.604 368.052 198.158 363.901 206.206 366.196C214.253 368.492 218.746 376.365 216.241 383.782Z" fill="white"/>
<path d="M249.356 393.229C246.852 400.645 238.297 404.797 230.25 402.501C222.203 400.206 217.71 392.332 220.215 384.916C222.72 377.499 231.274 373.348 239.321 375.643C247.368 377.939 251.861 385.812 249.356 393.229Z" fill="white"/>
<path d="M449.089 304.909C445.391 315.858 439.389 326.032 431.427 334.851C423.464 343.669 413.696 350.96 402.681 356.305C391.666 361.651 379.619 364.948 367.228 366.007C354.837 367.066 342.345 365.867 330.465 362.478C318.585 359.089 307.55 353.576 297.989 346.255C288.428 338.934 280.53 329.948 274.744 319.809C268.959 309.671 265.399 298.579 264.27 287.166C263.14 275.754 264.462 264.245 268.159 253.296L297.936 261.79C295.455 269.135 294.569 276.856 295.327 284.512C296.085 292.168 298.472 299.609 302.354 306.411C306.235 313.212 311.534 319.24 317.947 324.152C324.361 329.063 331.764 332.761 339.734 335.034C347.703 337.308 356.083 338.112 364.396 337.402C372.708 336.691 380.79 334.48 388.179 330.894C395.569 327.308 402.122 322.417 407.463 316.501C412.805 310.585 416.831 303.76 419.312 296.415L449.089 304.909Z" fill="white"/>
<path d="M365.51 246.306C360.691 260.574 344.235 268.56 328.753 264.144C313.272 259.728 304.629 244.581 309.448 230.313C314.266 216.045 330.723 208.058 346.204 212.475C361.686 216.891 370.329 232.038 365.51 246.306Z" fill="white"/>
<path d="M429.218 264.479C424.399 278.747 407.942 286.734 392.461 282.318C376.98 277.901 368.336 262.755 373.155 248.487C377.974 234.219 394.431 226.232 409.912 230.648C425.393 235.065 434.037 250.211 429.218 264.479Z" fill="white"/>
<path d="M68.5016 205.576C67.6084 208.221 66.1588 210.678 64.2356 212.808C62.3123 214.938 59.9531 216.699 57.2926 217.99C54.6321 219.281 51.7224 220.078 48.7296 220.333C45.7368 220.589 42.7196 220.3 39.8503 219.481C36.9809 218.662 34.3155 217.331 32.0063 215.563C29.6972 213.795 27.7894 211.624 26.392 209.175C24.9947 206.727 24.135 204.048 23.8621 201.291C23.5892 198.535 23.9084 195.755 24.8016 193.11L31.9936 195.162C31.3944 196.936 31.1802 198.801 31.3633 200.65C31.5464 202.499 32.1231 204.296 33.0605 205.939C33.998 207.582 35.2778 209.038 36.8269 210.224C38.376 211.41 40.164 212.303 42.0889 212.853C44.0138 213.402 46.0379 213.596 48.0456 213.424C50.0533 213.253 52.0053 212.719 53.7901 211.853C55.5749 210.986 57.1576 209.805 58.4478 208.376C59.738 206.947 60.7104 205.299 61.3096 203.525L68.5016 205.576Z" fill="white"/>
<path d="M48.3148 191.422C47.1509 194.868 43.1761 196.797 39.4369 195.73C35.6977 194.664 33.61 191.005 34.7739 187.559C35.9379 184.113 39.9126 182.184 43.6518 183.251C47.391 184.317 49.4787 187.976 48.3148 191.422Z" fill="white"/>
<path d="M63.7021 195.811C62.5382 199.258 58.5634 201.187 54.8242 200.12C51.085 199.053 48.9973 195.395 50.1612 191.949C51.3252 188.503 55.2999 186.574 59.0391 187.64C62.7783 188.707 64.866 192.365 63.7021 195.811Z" fill="white"/>
<path d="M31.8858 140.853C28.8804 140.658 25.9462 139.922 23.2507 138.687C20.5552 137.453 18.1513 135.744 16.1761 133.658C14.2009 131.572 12.6931 129.151 11.7389 126.531C10.7847 123.912 10.4028 121.146 10.6148 118.392C10.8269 115.637 11.6288 112.948 12.9749 110.479C14.3209 108.009 16.1847 105.806 18.4597 103.997C20.7348 102.188 23.3767 100.807 26.2345 99.9332C29.0922 99.0598 32.11 98.7108 35.1154 98.9062L34.5839 105.81C32.5677 105.679 30.5433 105.913 28.6261 106.499C26.709 107.085 24.9367 108.011 23.4105 109.225C21.8842 110.439 20.6339 111.916 19.731 113.573C18.828 115.23 18.29 117.034 18.1477 118.881C18.0055 120.729 18.2617 122.585 18.9018 124.342C19.542 126.099 20.5534 127.724 21.8785 129.123C23.2035 130.522 24.8162 131.669 26.6245 132.497C28.4327 133.325 30.4011 133.819 32.4173 133.95L31.8858 140.853Z" fill="white"/>
<path d="M42.2719 119.56C38.3554 119.305 35.4045 116.189 35.6809 112.6C35.9572 109.01 39.3561 106.307 43.2726 106.562C47.189 106.817 50.1399 109.933 49.8636 113.522C49.5872 117.111 46.1883 119.814 42.2719 119.56Z" fill="white"/>
<path d="M41.1347 134.33C37.2182 134.075 34.2673 130.959 34.5437 127.37C34.82 123.781 38.2189 121.077 42.1354 121.332C46.0518 121.587 49.0027 124.703 48.7264 128.292C48.4501 131.881 45.0511 134.584 41.1347 134.33Z" fill="white"/>
<path d="M147.261 352.663C147.604 355.414 147.356 358.2 146.53 360.862C145.705 363.524 144.318 366.009 142.45 368.177C140.582 370.344 138.268 372.151 135.642 373.494C133.015 374.837 130.127 375.69 127.142 376.004C124.157 376.318 121.134 376.087 118.245 375.325C115.356 374.562 112.658 373.283 110.305 371.56C107.952 369.837 105.99 367.704 104.531 365.282C103.072 362.861 102.145 360.199 101.802 357.448L109.283 356.66C109.513 358.506 110.135 360.292 111.114 361.916C112.093 363.541 113.409 364.972 114.988 366.128C116.566 367.283 118.376 368.142 120.314 368.653C122.252 369.165 124.28 369.32 126.283 369.109C128.285 368.898 130.223 368.326 131.985 367.425C133.747 366.524 135.299 365.312 136.552 363.858C137.805 362.404 138.735 360.736 139.289 358.951C139.843 357.165 140.01 355.296 139.78 353.451L147.261 352.663Z" fill="white"/>
<path d="M122.578 347.19C123.025 350.775 120.234 354.013 116.344 354.423C112.454 354.832 108.939 352.258 108.492 348.673C108.046 345.088 110.837 341.85 114.726 341.44C118.616 341.031 122.132 343.605 122.578 347.19Z" fill="white"/>
<path d="M138.585 345.506C139.032 349.09 136.241 352.329 132.351 352.738C128.461 353.147 124.946 350.573 124.499 346.988C124.052 343.403 126.844 340.165 130.733 339.756C134.623 339.346 138.139 341.921 138.585 345.506Z" fill="white"/>
<path d="M175.824 331.295C172.696 328.161 170.268 324.493 168.678 320.501C167.089 316.508 166.37 312.269 166.562 308.026C166.754 303.782 167.853 299.618 169.798 295.769C171.742 291.921 174.493 288.465 177.893 285.597C181.293 282.73 185.276 280.508 189.615 279.058C193.954 277.609 198.563 276.96 203.18 277.148C207.796 277.337 212.33 278.359 216.522 280.157C220.714 281.955 224.481 284.493 227.61 287.627L219.087 294.814C216.988 292.712 214.461 291.009 211.649 289.802C208.837 288.596 205.795 287.91 202.698 287.784C199.601 287.657 196.509 288.093 193.599 289.066C190.688 290.038 188.016 291.529 185.735 293.452C183.454 295.376 181.608 297.694 180.304 300.276C179 302.858 178.262 305.651 178.133 308.498C178.005 311.345 178.487 314.189 179.553 316.867C180.619 319.545 182.248 322.006 184.347 324.108L175.824 331.295Z" fill="white"/>
<path d="M211.871 317.613C207.794 313.53 208.081 307.19 212.512 303.454C216.943 299.717 223.84 299.999 227.917 304.083C231.995 308.166 231.708 314.506 227.277 318.242C222.846 321.979 215.948 321.697 211.871 317.613Z" fill="white"/>
<path d="M193.637 332.989C189.56 328.905 189.847 322.566 194.278 318.829C198.709 315.093 205.606 315.375 209.683 319.458C213.76 323.542 213.473 329.882 209.042 333.618C204.611 337.355 197.714 337.073 193.637 332.989Z" fill="white"/>
<path d="M83.3966 261.05C87.0788 258.474 91.2755 256.587 95.747 255.499C100.219 254.41 104.877 254.14 109.458 254.705C114.038 255.269 118.45 256.657 122.441 258.789C126.433 260.921 129.926 263.755 132.721 267.129C135.516 270.504 137.559 274.353 138.732 278.456C139.906 282.56 140.187 286.837 139.56 291.045C138.933 295.253 137.409 299.308 135.077 302.98C132.745 306.651 129.649 309.867 125.967 312.443L118.961 303.985C121.431 302.257 123.508 300.099 125.072 297.636C126.637 295.173 127.659 292.453 128.08 289.63C128.5 286.807 128.312 283.938 127.525 281.185C126.737 278.432 125.367 275.85 123.492 273.586C121.617 271.322 119.273 269.421 116.596 267.991C113.918 266.561 110.958 265.63 107.886 265.251C104.813 264.873 101.688 265.054 98.688 265.784C95.6882 266.514 92.8729 267.78 90.4027 269.508L83.3966 261.05Z" fill="white"/>
<path d="M94.9185 295.292C99.7169 291.935 106.56 292.778 110.202 297.176C113.845 301.573 112.908 307.86 108.109 311.217C103.311 314.574 96.4683 313.731 92.8257 309.333C89.1832 304.936 90.1201 298.649 94.9185 295.292Z" fill="white"/>
<path d="M79.9288 277.196C84.7272 273.839 91.5699 274.682 95.2125 279.08C98.8551 283.477 97.9181 289.764 93.1197 293.121C88.3214 296.478 81.4786 295.634 77.8361 291.237C74.1935 286.84 75.1305 280.553 79.9288 277.196Z" fill="white"/>
<path d="M-9.17565 67.5313C-12.3043 64.3974 -14.7326 60.7296 -16.3219 56.737C-17.9112 52.7445 -18.6303 48.5056 -18.4382 44.2622C-18.2462 40.0188 -17.1467 35.854 -15.2025 32.0058C-13.2583 28.1575 -10.5076 24.7011 -7.10729 21.8338C-3.70701 18.9666 0.276218 16.7446 4.61496 15.2949C8.95369 13.8452 13.563 13.196 18.1796 13.3845C22.7963 13.573 27.3299 14.5954 31.5217 16.3934C35.7134 18.1914 39.4812 20.7298 42.6098 23.8636L34.0872 31.0503C31.9883 28.948 29.4607 27.2451 26.6487 26.0389C23.8367 24.8327 20.7953 24.1468 17.6982 24.0204C14.6012 23.8939 11.509 24.3294 8.59841 25.302C5.68777 26.2745 3.01564 27.7651 0.734567 29.6886C-1.5465 31.6121 -3.39184 33.9308 -4.69607 36.5124C-6.00031 39.094 -6.73791 41.8879 -6.86676 44.7346C-6.9956 47.5813 -6.51317 50.425 -5.44701 53.1033C-4.38085 55.7817 -2.75184 58.2423 -0.652984 60.3446L-9.17565 67.5313Z" fill="white"/>
<path d="M26.8711 53.8498C22.794 49.766 23.081 43.4264 27.512 39.69C31.9431 35.9536 38.8402 36.2352 42.9173 40.319C46.9944 44.4028 46.7075 50.7423 42.2764 54.4787C37.8454 58.2152 30.9482 57.9336 26.8711 53.8498Z" fill="white"/>
<path d="M8.6368 69.2257C4.55972 65.1419 4.84666 58.8024 9.2777 55.0659C13.7087 51.3295 20.6059 51.6111 24.683 55.6949C28.7601 59.7787 28.4731 66.1182 24.0421 69.8547C19.6111 73.5911 12.7139 73.3095 8.6368 69.2257Z" fill="white"/>
<path d="M299.507 187.777C294.665 188.965 289.618 189.268 284.652 188.669C279.685 188.069 274.898 186.578 270.563 184.282C266.228 181.985 262.43 178.927 259.385 175.283C256.341 171.639 254.111 167.48 252.821 163.043C251.531 158.606 251.208 153.979 251.869 149.425C252.53 144.871 254.163 140.48 256.674 136.503C259.185 132.525 262.526 129.039 266.505 126.243C270.484 123.447 275.024 121.396 279.865 120.207L283.097 131.328C279.85 132.125 276.804 133.501 274.135 135.376C271.466 137.252 269.225 139.591 267.54 142.259C265.855 144.928 264.76 147.874 264.316 150.928C263.873 153.983 264.09 157.088 264.955 160.064C265.82 163.04 267.317 165.83 269.359 168.275C271.401 170.72 273.949 172.771 276.857 174.312C279.765 175.852 282.977 176.852 286.309 177.255C289.64 177.657 293.026 177.454 296.274 176.656L299.507 187.777Z" fill="white"/>
<path d="M303.29 149.122C296.981 150.671 290.505 147.24 288.824 141.458C287.143 135.677 290.895 129.734 297.204 128.185C303.512 126.636 309.989 130.068 311.67 135.849C313.35 141.631 309.599 147.573 303.29 149.122Z" fill="white"/>
<path d="M310.206 172.914C303.897 174.463 297.421 171.032 295.74 165.251C294.059 159.469 297.811 153.526 304.12 151.977C310.428 150.428 316.905 153.86 318.586 159.641C320.266 165.423 316.515 171.366 310.206 172.914Z" fill="white"/>
<path d="M131.414 439.463C129.235 441.752 126.588 443.625 123.625 444.975C120.662 446.326 117.44 447.127 114.143 447.334C110.846 447.54 107.539 447.148 104.411 446.179C101.283 445.21 98.3947 443.684 95.9112 441.687C93.4278 439.69 91.3978 437.262 89.9371 434.542C88.4765 431.821 87.6138 428.861 87.3984 425.831C87.183 422.8 87.619 419.759 88.6816 416.88C89.7442 414.001 91.4125 411.342 93.5913 409.053L99.816 414.058C98.3543 415.593 97.2351 417.377 96.5223 419.309C95.8095 421.24 95.517 423.28 95.6615 425.313C95.806 427.346 96.3847 429.332 97.3646 431.157C98.3444 432.982 99.7063 434.611 101.372 435.95C103.038 437.29 104.976 438.314 107.074 438.964C109.173 439.614 111.391 439.877 113.603 439.738C115.815 439.6 117.976 439.062 119.964 438.156C121.952 437.25 123.727 435.994 125.189 434.458L131.414 439.463Z" fill="white"/>
<path d="M118.013 416.987C115.174 419.97 110.248 420.279 107.012 417.677C103.776 415.075 103.454 410.547 106.293 407.565C109.132 404.582 114.058 404.273 117.294 406.875C120.53 409.477 120.852 414.005 118.013 416.987Z" fill="white"/>
<path d="M131.331 427.695C128.491 430.678 123.566 430.986 120.33 428.384C117.094 425.782 116.772 421.255 119.611 418.272C122.45 415.29 127.375 414.981 130.612 417.583C133.848 420.185 134.17 424.713 131.331 427.695Z" fill="white"/>
<path d="M73.7291 359.36C75.503 363.56 76.3618 368.04 76.2566 372.542C76.1514 377.045 75.0842 381.482 73.116 385.602C71.1478 389.721 68.3171 393.442 64.7855 396.551C61.2539 399.66 57.0905 402.097 52.5332 403.723C47.9759 405.349 43.1138 406.131 38.2246 406.026C33.3353 405.92 28.5147 404.929 24.0379 403.108C19.5611 401.288 15.5158 398.674 12.1329 395.416C8.75009 392.157 6.09599 388.318 4.32214 384.118L15.7449 380.044C16.9349 382.861 18.7154 385.437 20.9847 387.622C23.2541 389.808 25.9679 391.562 28.9711 392.783C31.9744 394.004 35.2083 394.669 38.4882 394.74C41.7682 394.811 45.0299 394.286 48.0872 393.195C51.1444 392.105 53.9374 390.47 56.3065 388.384C58.6757 386.298 60.5747 383.803 61.8951 381.039C63.2154 378.275 63.9314 375.298 64.0019 372.278C64.0725 369.257 63.4963 366.252 62.3064 363.435L73.7291 359.36Z" fill="white"/>
<path d="M32.4226 360.099C34.7342 365.573 31.7937 371.727 25.8549 373.846C19.916 375.964 13.2278 373.244 10.9162 367.771C8.60465 362.297 11.5451 356.143 17.4839 354.025C23.4228 351.906 30.111 354.626 32.4226 360.099Z" fill="white"/>
<path d="M56.8617 351.382C59.1732 356.855 56.2327 363.01 50.2939 365.128C44.3551 367.246 37.6668 364.527 35.3553 359.053C33.0437 353.58 35.9842 347.425 41.923 345.307C47.8618 343.189 54.5501 345.908 56.8617 351.382Z" fill="white"/>
<path d="M369.729 400.717C371.503 404.917 372.362 409.396 372.257 413.899C372.151 418.401 371.084 422.839 369.116 426.959C367.148 431.078 364.317 434.799 360.785 437.908C357.254 441.017 353.091 443.454 348.533 445.08C343.976 446.705 339.114 447.488 334.225 447.382C329.335 447.277 324.515 446.286 320.038 444.465C315.561 442.645 311.516 440.031 308.133 436.772C304.75 433.514 302.096 429.675 300.322 425.475L311.745 421.4C312.935 424.218 314.715 426.793 316.985 428.979C319.254 431.165 321.968 432.919 324.971 434.14C327.974 435.361 331.208 436.026 334.488 436.097C337.768 436.168 341.03 435.643 344.087 434.552C347.144 433.462 349.937 431.827 352.307 429.741C354.676 427.655 356.575 425.159 357.895 422.396C359.215 419.632 359.931 416.655 360.002 413.635C360.072 410.614 359.496 407.609 358.306 404.791L369.729 400.717Z" fill="white"/>
<path d="M328.423 401.456C330.734 406.929 327.794 413.084 321.855 415.202C315.916 417.321 309.228 414.601 306.916 409.128C304.605 403.654 307.545 397.5 313.484 395.381C319.423 393.263 326.111 395.983 328.423 401.456Z" fill="white"/>
<path d="M352.862 392.738C355.173 398.212 352.233 404.366 346.294 406.485C340.355 408.603 333.667 405.883 331.355 400.41C329.044 394.937 331.984 388.782 337.923 386.664C343.862 384.545 350.55 387.265 352.862 392.738Z" fill="white"/>
<path d="M264.616 335.903C265.404 337.77 265.786 339.761 265.739 341.763C265.693 343.765 265.218 345.738 264.343 347.569C263.468 349.4 262.21 351.054 260.64 352.436C259.07 353.819 257.219 354.902 255.193 355.625C253.167 356.347 251.006 356.695 248.832 356.648C246.658 356.602 244.515 356.161 242.525 355.352C240.535 354.542 238.737 353.38 237.233 351.932C235.729 350.483 234.549 348.777 233.76 346.909L238.838 345.098C239.367 346.351 240.159 347.495 241.168 348.467C242.177 349.439 243.383 350.218 244.718 350.761C246.053 351.304 247.491 351.6 248.949 351.631C250.407 351.663 251.857 351.429 253.216 350.945C254.576 350.46 255.817 349.733 256.87 348.806C257.924 347.879 258.768 346.769 259.355 345.54C259.942 344.312 260.26 342.988 260.291 341.646C260.323 340.303 260.067 338.967 259.538 337.714L264.616 335.903Z" fill="white"/>
<path d="M246.253 336.232C247.28 338.665 245.973 341.401 243.333 342.343C240.693 343.284 237.719 342.075 236.692 339.642C235.664 337.209 236.971 334.473 239.612 333.531C242.252 332.589 245.225 333.798 246.253 336.232Z" fill="white"/>
<path d="M257.117 332.356C258.145 334.789 256.838 337.525 254.197 338.467C251.557 339.409 248.584 338.2 247.556 335.767C246.529 333.333 247.836 330.597 250.476 329.656C253.116 328.714 256.09 329.923 257.117 332.356Z" fill="white"/>
<path d="M279.227 371.331C280.152 370.819 281.178 370.478 282.246 370.329C283.314 370.18 284.403 370.225 285.451 370.462C286.498 370.7 287.485 371.124 288.353 371.711C289.221 372.299 289.954 373.038 290.51 373.886C291.067 374.734 291.435 375.675 291.595 376.655C291.755 377.634 291.703 378.634 291.441 379.596C291.18 380.559 290.715 381.465 290.073 382.263C289.431 383.061 288.624 383.736 287.699 384.249L286.304 382.123C286.925 381.779 287.467 381.326 287.897 380.791C288.328 380.255 288.64 379.647 288.815 379.002C288.99 378.356 289.025 377.686 288.918 377.028C288.811 376.371 288.564 375.74 288.191 375.171C287.817 374.602 287.326 374.106 286.743 373.712C286.161 373.318 285.499 373.033 284.796 372.874C284.093 372.715 283.363 372.685 282.646 372.785C281.93 372.885 281.242 373.113 280.621 373.457L279.227 371.331Z" fill="white"/>
<path d="M280.962 379.548C282.168 378.879 283.733 379.234 284.458 380.339C285.183 381.444 284.793 382.882 283.587 383.55C282.381 384.218 280.815 383.864 280.09 382.759C279.366 381.653 279.756 380.216 280.962 379.548Z" fill="white"/>
<path d="M277.978 374.999C279.184 374.331 280.75 374.685 281.475 375.791C282.2 376.896 281.81 378.334 280.604 379.002C279.398 379.67 277.832 379.315 277.107 378.21C276.382 377.105 276.772 375.667 277.978 374.999Z" fill="white"/>
<path d="M186.428 58.4406C190.696 56.0764 195.427 54.5058 200.352 53.8183C205.276 53.1308 210.298 53.34 215.129 54.4338C219.961 55.5277 224.508 57.4848 228.511 60.1935C232.514 62.9022 235.895 66.3094 238.46 70.2206C241.025 74.1317 242.725 78.4702 243.462 82.9884C244.198 87.5065 243.958 92.1159 242.754 96.5532C241.55 100.99 239.406 105.169 236.445 108.85C233.484 112.531 229.763 115.642 225.496 118.006L219.066 108.203C221.929 106.617 224.425 104.53 226.412 102.061C228.398 99.5913 229.836 96.7882 230.644 93.8114C231.451 90.8347 231.613 87.7425 231.118 84.7115C230.624 81.6805 229.484 78.7701 227.763 76.1463C226.042 73.5225 223.774 71.2368 221.089 69.4197C218.404 67.6026 215.353 66.2896 212.112 65.5558C208.871 64.822 205.502 64.6816 202.198 65.1428C198.895 65.604 195.721 66.6577 192.858 68.2437L186.428 58.4406Z" fill="white"/>
<path d="M194.429 96.3281C199.99 93.2472 207.209 94.8815 210.551 99.9782C213.894 105.075 212.096 111.704 206.534 114.785C200.973 117.866 193.755 116.232 190.412 111.135C187.069 106.038 188.867 99.4089 194.429 96.3281Z" fill="white"/>
<path d="M180.673 75.3542C186.234 72.2734 193.452 73.9076 196.795 79.0044C200.138 84.1011 198.34 90.7304 192.778 93.8112C187.217 96.8921 179.998 95.2579 176.656 90.1611C173.313 85.0643 175.111 78.4351 180.673 75.3542Z" fill="white"/>
<path d="M-2.57173 245.005C1.69599 242.641 6.42717 241.07 11.3517 240.383C16.2762 239.695 21.2976 239.904 26.1292 240.998C30.9608 242.092 35.508 244.049 39.5111 246.758C43.5142 249.467 46.8949 252.874 49.4601 256.785C52.0253 260.696 53.7248 265.035 54.4616 269.553C55.1983 274.071 54.9579 278.68 53.7541 283.118C52.5502 287.555 50.4065 291.733 47.4453 295.414C44.4841 299.095 40.7634 302.207 36.4957 304.571L30.0661 294.768C32.9291 293.182 35.4251 291.094 37.4116 288.625C39.3981 286.156 40.8362 283.353 41.6438 280.376C42.4514 277.399 42.6127 274.307 42.1185 271.276C41.6242 268.245 40.4841 265.335 38.7633 262.711C37.0424 260.087 34.7745 257.801 32.089 255.984C29.4035 254.167 26.3531 252.854 23.1118 252.12C19.8705 251.386 16.5019 251.246 13.1983 251.707C9.89473 252.168 6.72083 253.222 3.85784 254.808L-2.57173 245.005Z" fill="white"/>
<path d="M5.42889 282.893C10.9903 279.812 18.2086 281.446 21.5514 286.543C24.8943 291.639 23.0957 298.269 17.5343 301.35C11.9729 304.43 4.75455 302.796 1.41174 297.699C-1.93107 292.603 -0.132532 285.973 5.42889 282.893Z" fill="white"/>
<path d="M-8.32724 261.919C-2.76582 258.838 4.45249 260.472 7.79531 265.569C11.1381 270.666 9.33958 277.295 3.77815 280.376C-1.78327 283.457 -9.00158 281.822 -12.3444 276.726C-15.6872 271.629 -13.8887 265 -8.32724 261.919Z" fill="white"/>
<path d="M247.976 182.182C250.988 189.392 252.429 197.075 252.217 204.793C252.006 212.511 250.146 220.112 246.743 227.162C243.341 234.212 238.463 240.573 232.387 245.882C226.312 251.191 219.158 255.345 211.335 258.105C203.511 260.864 195.171 262.177 186.791 261.968C178.41 261.758 170.154 260.031 162.492 256.884C154.83 253.737 147.914 249.233 142.138 243.627C136.362 238.022 131.839 231.426 128.827 224.215L148.436 217.298C150.456 222.135 153.491 226.56 157.366 230.32C161.241 234.08 165.88 237.102 171.02 239.213C176.16 241.324 181.699 242.483 187.321 242.624C192.943 242.764 198.538 241.884 203.786 240.032C209.034 238.181 213.833 235.394 217.909 231.833C221.985 228.271 225.257 224.004 227.54 219.274C229.822 214.545 231.07 209.446 231.212 204.268C231.354 199.091 230.387 193.937 228.367 189.099L247.976 182.182Z" fill="white"/>
<path d="M177.163 183.207C181.088 192.603 176.005 203.136 165.81 206.732C155.615 210.329 144.168 205.628 140.244 196.231C136.319 186.835 141.403 176.303 151.598 172.706C161.793 169.109 173.239 173.811 177.163 183.207Z" fill="white"/>
<path d="M219.117 168.406C223.042 177.802 217.959 188.335 207.764 191.932C197.569 195.528 186.122 190.827 182.198 181.431C178.273 172.035 183.357 161.502 193.552 157.905C203.747 154.309 215.193 159.01 219.117 168.406Z" fill="white"/>
<path d="M434.54 57.566C439.656 63.6928 443.413 70.6832 445.597 78.138C447.78 85.5929 448.346 93.3662 447.264 101.014C446.181 108.662 443.471 116.035 439.287 122.712C435.103 129.389 429.528 135.239 422.881 139.928C416.233 144.617 408.643 148.054 400.543 150.041C392.443 152.029 383.993 152.528 375.674 151.512C367.355 150.495 359.331 147.982 352.06 144.117C344.789 140.251 338.413 135.107 333.296 128.981L349.959 117.227C353.391 121.338 357.668 124.788 362.546 127.381C367.424 129.975 372.807 131.661 378.388 132.343C383.968 133.025 389.637 132.689 395.071 131.356C400.504 130.022 405.596 127.717 410.056 124.571C414.516 121.426 418.256 117.501 421.062 113.022C423.869 108.543 425.687 103.597 426.413 98.4663C427.14 93.3356 426.76 88.1209 425.295 83.1198C423.83 78.1188 421.31 73.4293 417.877 69.3192L434.54 57.566Z" fill="white"/>
<path d="M366.962 77.0402C373.63 85.0243 372.013 96.4502 363.35 102.561C354.687 108.671 342.259 107.153 335.591 99.1687C328.923 91.1847 330.541 79.7588 339.204 73.6482C347.867 67.5375 360.295 69.0562 366.962 77.0402Z" fill="white"/>
<path d="M402.611 51.8943C409.279 59.8783 407.662 71.3042 398.999 77.4148C390.336 83.5254 377.908 82.0067 371.24 74.0227C364.572 66.0387 366.19 54.6128 374.853 48.5022C383.516 42.3916 395.944 43.9102 402.611 51.8943Z" fill="white"/>
<path d="M201.89 -82.7073C209.193 -73.9623 214.556 -63.9847 217.672 -53.344C220.788 -42.7034 221.597 -31.6081 220.052 -20.6918C218.506 -9.77546 214.637 0.748206 208.666 10.2783C202.694 19.8085 194.737 28.1584 185.249 34.8515C175.76 41.5445 164.926 46.4495 153.365 49.2865C141.804 52.1235 129.742 52.8369 117.868 51.386C105.995 49.935 94.5417 46.3481 84.1633 40.8301C73.7848 35.3121 64.6842 27.971 57.381 19.226L81.1637 2.45019C86.0631 8.31675 92.1682 13.2415 99.1306 16.9432C106.093 20.645 113.776 23.0512 121.741 24.0246C129.707 24.998 137.798 24.5194 145.554 22.6162C153.31 20.713 160.578 17.4225 166.943 12.9325C173.309 8.44247 178.647 2.84093 182.653 -3.55233C186.659 -9.9456 189.254 -17.0054 190.291 -24.3286C191.328 -31.6518 190.785 -39.095 188.695 -46.2332C186.604 -53.3715 183.007 -60.065 178.107 -65.9315L201.89 -82.7073Z" fill="white"/>
<path d="M105.434 -54.9109C114.951 -43.515 112.642 -27.2062 100.277 -18.4842C87.9124 -9.76229 70.1734 -11.93 60.6563 -23.3259C51.1392 -34.7219 53.4478 -51.0306 65.8128 -59.7526C78.1777 -68.4746 95.9166 -66.3069 105.434 -54.9109Z" fill="white"/>
<path d="M156.317 -90.8029C165.834 -79.407 163.526 -63.0982 151.161 -54.3763C138.796 -45.6543 121.057 -47.822 111.54 -59.218C102.023 -70.6139 104.331 -86.9227 116.696 -95.6446C129.061 -104.367 146.8 -102.199 156.317 -90.8029Z" fill="white"/>
<path d="M299.893 51.2539C301.424 53.0878 302.549 55.1801 303.202 57.4115C303.856 59.6428 304.025 61.9695 303.701 64.2587C303.377 66.5479 302.566 68.7547 301.314 70.7532C300.062 72.7517 298.393 74.5027 296.403 75.9062C294.413 77.3098 292.141 78.3384 289.717 78.9333C287.293 79.5282 284.763 79.6778 282.273 79.3735C279.783 79.0693 277.382 78.3171 275.205 77.1599C273.029 76.0028 271.121 74.4634 269.589 72.6295L274.576 69.1116C275.604 70.3418 276.884 71.3746 278.344 72.1508C279.804 72.9271 281.415 73.4317 283.086 73.6358C284.756 73.8399 286.453 73.7396 288.079 73.3405C289.706 72.9414 291.23 72.2513 292.565 71.3098C293.899 70.3682 295.019 69.1935 295.859 67.8529C296.699 66.5122 297.243 65.0317 297.461 63.4961C297.678 61.9604 297.564 60.3995 297.126 58.9026C296.687 57.4057 295.933 56.0021 294.906 54.7718L299.893 51.2539Z" fill="white"/>
<path d="M279.666 57.0829C281.662 59.4726 281.177 62.8926 278.585 64.7216C275.992 66.5506 272.272 66.0961 270.276 63.7063C268.28 61.3166 268.764 57.8966 271.357 56.0676C273.95 54.2386 277.67 54.6931 279.666 57.0829Z" fill="white"/>
<path d="M290.336 49.5563C292.332 51.946 291.848 55.366 289.255 57.195C286.662 59.024 282.942 58.5694 280.946 56.1797C278.951 53.7899 279.435 50.37 282.028 48.541C284.621 46.7119 288.34 47.1665 290.336 49.5563Z" fill="white"/>
</g>
<defs>
<linearGradient id="paint0_linear_248_2476" x1="-66" y1="-153.519" x2="122.184" y2="651.188" gradientUnits="userSpaceOnUse">
<stop stop-color="#68EDFE"/>
<stop offset="0.473971" stop-color="#0153FF"/>
<stop offset="1" stop-color="#28B0FF"/>
</linearGradient>
</defs>
</svg>
